<svg width="166" height="40" viewBox="0 0 166 40" fill="none" xmlns="http://www.w3.org/2000/svg">
<g clip-path="url(#clip0_6_1513)">
<path d="M15.6136 5.73589V18.948C15.6136 20.378 14.4822 21.5379 13.0846 21.5379H0C0.665199 13.0232 7.29321 6.23055 15.6052 5.5481C15.6112 5.61069 15.6124 5.67207 15.6124 5.73589H15.6136Z" fill="#F4CE47"/>
<path d="M33.9815 21.5382H20.8969C19.5006 21.5382 18.3679 20.3782 18.3679 18.9483V5.73614C18.3679 5.67231 18.3703 5.60971 18.3751 5.54834C26.6871 6.23079 33.3163 13.0234 33.9803 21.5382H33.9815Z" fill="#F4CE47"/>
<path d="M15.6136 26.9476V40.1609C15.6136 40.2235 15.6112 40.2849 15.6064 40.3475C7.29321 39.6638 0.665199 32.8736 0 24.3589H13.0846C14.4822 24.3589 15.6136 25.5176 15.6136 26.9476Z" fill="#F4CE47"/>
<path d="M33.9814 24.3586C33.3162 32.8734 26.6882 39.6636 18.3762 40.346C18.3702 40.2834 18.369 40.222 18.369 40.1594V26.9461C18.369 25.5161 19.5017 24.3574 20.898 24.3574H33.9826L33.9814 24.3586Z" fill="#F4CE47"/>
<path d="M50.621 27.75H44.7828V16.1729H50.3513C51.1616 16.1729 51.8423 16.2735 52.3937 16.4748C52.945 16.6761 53.3609 16.9903 53.6426 17.4162C53.923 17.8422 54.0645 18.3896 54.0645 19.0573C54.0645 19.7251 53.8763 20.3105 53.4987 20.7426C53.1212 21.1747 52.5567 21.4361 51.8028 21.5294V21.7025C52.7137 21.7712 53.3945 22.0719 53.8451 22.6009C54.2946 23.1312 54.5199 23.7879 54.5199 24.571C54.5199 25.2166 54.3761 25.7775 54.0896 26.2562C53.8032 26.7349 53.3693 27.1032 52.7904 27.3622C52.2103 27.6212 51.4876 27.7513 50.6222 27.7513L50.621 27.75ZM47.3142 18.505V20.7512H50.1823C50.6546 20.7512 50.9973 20.6763 51.2119 20.5266C51.4252 20.3768 51.5319 20.0773 51.5319 19.6281C51.5319 19.1555 51.4216 18.8499 51.2023 18.7124C50.983 18.5749 50.6426 18.505 50.1811 18.505H47.313H47.3142ZM47.3142 22.8599V25.4179H50.5371C50.9985 25.4179 51.3521 25.343 51.6002 25.1933C51.8471 25.0435 51.9718 24.6986 51.9718 24.1561C51.9718 23.6136 51.8507 23.2343 51.6086 23.0845C51.3665 22.9348 51.0093 22.8599 50.5371 22.8599H47.3142V22.8599Z" fill="white"/>
<path d="M57.9945 27.75H55.4631V16.1729H57.9945V27.7513V27.75Z" fill="white"/>
<path d="M63.8673 27.9231C62.7874 27.9231 61.8765 27.6837 61.1334 27.2062C60.3915 26.7288 59.8258 26.0426 59.4375 25.1503C59.0491 24.2579 58.855 23.195 58.855 21.9614C58.855 20.7278 59.0743 19.7005 59.513 18.8081C59.9517 17.9158 60.5821 17.2247 61.4031 16.735C62.2241 16.2452 63.2081 16.001 64.3564 16.001C65.5046 16.001 66.4263 16.1826 67.1909 16.546C67.9556 16.9093 68.5345 17.4187 68.9288 18.0753C69.322 18.732 69.5197 19.5213 69.5197 20.4431V20.529H66.8374V20.4603C66.8374 19.7226 66.6456 19.2132 66.2633 18.9309C65.8809 18.6486 65.2277 18.5074 64.306 18.5074C63.6648 18.5074 63.1422 18.6056 62.7371 18.8008C62.332 18.9972 62.0336 19.3457 61.843 19.8465C61.6512 20.3473 61.5565 21.0531 61.5565 21.9639C61.5565 22.8746 61.6572 23.6 61.8598 24.107C62.0623 24.6139 62.3823 24.9649 62.821 25.1613C63.2597 25.3577 63.8338 25.4547 64.5421 25.4547C65.1378 25.4547 65.6244 25.4093 66.002 25.316C66.3783 25.2239 66.66 25.0509 66.8458 24.798C67.0315 24.5452 67.1238 24.1818 67.1238 23.7093V22.9311H69.5533V23.1901L67.3935 25.9899H67.107C66.9944 26.2894 66.8122 26.5888 66.5581 26.8883C66.3052 27.1878 65.9588 27.4358 65.5201 27.6309C65.0815 27.8261 64.5301 27.9243 63.8661 27.9243L63.8673 27.9231ZM69.5533 23.7584H64.0351V21.5981H69.5533V23.7584ZM69.5533 27.75H67.2077V24.6225L67.1238 24.4151V21.9099H69.5533V27.7512V27.75Z" fill="white"/>
<path d="M79.5421 27.75H73.704V16.1729H79.2725C80.0827 16.1729 80.7635 16.2735 81.3136 16.4748C81.8649 16.6761 82.2808 16.9903 82.5625 17.4162C82.843 17.8422 82.9844 18.3896 82.9844 19.0573C82.9844 19.7251 82.7962 20.3105 82.4187 20.7426C82.0411 21.1747 81.4766 21.4361 80.7227 21.5294V21.7025C81.6336 21.7712 82.3144 22.0719 82.7639 22.6009C83.2133 23.1312 83.4386 23.7879 83.4386 24.571C83.4386 25.2166 83.2948 25.7775 83.0084 26.2562C82.7219 26.7349 82.288 27.1032 81.7091 27.3622C81.1302 27.6212 80.4075 27.7513 79.5409 27.7513L79.5421 27.75ZM76.2353 18.505V20.7512H79.1035C79.5757 20.7512 79.9185 20.6763 80.133 20.5266C80.3464 20.3768 80.4542 20.0773 80.4542 19.6281C80.4542 19.1555 80.344 18.8499 80.1246 18.7124C79.9053 18.5737 79.5649 18.505 79.1035 18.505H76.2353ZM76.2353 22.8599V25.4179H79.4582C79.9197 25.4179 80.2733 25.343 80.5214 25.1933C80.7683 25.0435 80.8929 24.6986 80.8929 24.1561C80.8929 23.6136 80.7719 23.2343 80.5298 23.0845C80.2876 22.9348 79.9305 22.8599 79.4582 22.8599H76.2353Z" fill="white"/>
<path d="M89.4469 27.9233C88.3107 27.9233 87.3399 27.679 86.5357 27.1893C85.7314 26.6996 85.1094 26.0085 84.6707 25.1162C84.232 24.2238 84.0127 23.1719 84.0127 21.9629C84.0127 20.7538 84.232 19.7019 84.6707 18.8096C85.1094 17.9172 85.7314 17.2262 86.5357 16.7364C87.3399 16.2467 88.3095 16.0024 89.4469 16.0024C90.5844 16.0024 91.5396 16.2479 92.3499 16.7364C93.1601 17.2262 93.7809 17.9172 94.2148 18.8096C94.6475 19.7019 94.8644 20.7538 94.8644 21.9629C94.8644 23.1719 94.6475 24.2238 94.2148 25.1162C93.7821 26.0085 93.1601 26.7008 92.3499 27.1893C91.5396 27.679 90.5724 27.9233 89.4469 27.9233ZM89.4469 25.4181C90.0882 25.4181 90.6083 25.3175 91.0075 25.1162C91.4066 24.9149 91.699 24.5626 91.8848 24.0618C92.0706 23.561 92.1629 22.8601 92.1629 21.9616C92.1629 21.0632 92.0706 20.3488 91.8848 19.8529C91.699 19.3583 91.4066 19.0097 91.0075 18.8071C90.6083 18.6058 90.0882 18.5052 89.4469 18.5052C88.8057 18.5052 88.2688 18.6058 87.8696 18.8071C87.4705 19.0084 87.1781 19.357 86.9923 19.8529C86.8065 20.3488 86.7142 21.0509 86.7142 21.9616C86.7142 22.8724 86.8065 23.5598 86.9923 24.0618C87.1781 24.5626 87.4705 24.9149 87.8696 25.1162C88.2688 25.3175 88.7949 25.4181 89.4469 25.4181Z" fill="white"/>
<path d="M101.039 27.9233C99.9032 27.9233 98.9324 27.679 98.1282 27.1893C97.324 26.6996 96.7019 26.0085 96.2632 25.1162C95.8246 24.2238 95.6052 23.1719 95.6052 21.9629C95.6052 20.7538 95.8246 19.7019 96.2632 18.8096C96.7019 17.9172 97.324 17.2262 98.1282 16.7364C98.9324 16.2467 99.9021 16.0024 101.039 16.0024C102.177 16.0024 103.132 16.2479 103.942 16.7364C104.753 17.2262 105.373 17.9172 105.807 18.8096C106.24 19.7019 106.457 20.7538 106.457 21.9629C106.457 23.1719 106.24 24.2238 105.807 25.1162C105.375 26.0085 104.753 26.7008 103.942 27.1893C103.132 27.679 102.165 27.9233 101.039 27.9233ZM101.039 25.4181C101.681 25.4181 102.201 25.3175 102.6 25.1162C102.999 24.9149 103.292 24.5626 103.477 24.0618C103.663 23.561 103.755 22.8601 103.755 21.9616C103.755 21.0632 103.663 20.3488 103.477 19.8529C103.292 19.3583 102.999 19.0097 102.6 18.8071C102.201 18.6058 101.681 18.5052 101.039 18.5052C100.398 18.5052 99.8613 18.6058 99.4622 18.8071C99.0631 19.0084 98.7706 19.357 98.5848 19.8529C98.3991 20.3488 98.3068 21.0509 98.3068 21.9616C98.3068 22.8724 98.3991 23.5598 98.5848 24.0618C98.7706 24.5626 99.0631 24.9149 99.4622 25.1162C99.8613 25.3175 100.387 25.4181 101.039 25.4181Z" fill="white"/>
<path d="M109.864 27.75H107.333V16.1729H109.864V27.7513V27.75ZM117.474 27.75H114.571L112.04 23.292H108.564V20.7868H112.006L114.655 16.1729H117.523L114.114 21.9099L117.473 27.7513L117.474 27.75Z" fill="white"/>
<path d="M122.267 27.9231C121.164 27.9231 120.254 27.7733 119.533 27.4738C118.813 27.1743 118.278 26.7312 117.931 26.1433C117.582 25.5554 117.408 24.8361 117.408 23.983V23.7584H119.889V23.9315C119.889 24.3574 119.956 24.6888 120.092 24.9257C120.227 25.1626 120.472 25.3295 120.825 25.4265C121.18 25.5247 121.7 25.5738 122.386 25.5738C123.071 25.5738 123.584 25.494 123.82 25.332C124.057 25.1712 124.175 24.8938 124.175 24.5022C124.175 24.2371 124.138 24.0247 124.065 23.8627C123.992 23.7019 123.831 23.5669 123.584 23.4564C123.336 23.3472 122.949 23.2515 122.421 23.1717L120.43 22.8083C119.709 22.6819 119.122 22.4708 118.667 22.1774C118.211 21.8841 117.879 21.5146 117.671 21.0715C117.462 20.6284 117.359 20.1068 117.359 19.5078C117.359 18.9088 117.508 18.3442 117.806 17.8139C118.105 17.2837 118.588 16.8491 119.258 16.5091C119.926 16.1691 120.795 15.9998 121.864 15.9998C122.933 15.9998 123.819 16.1728 124.488 16.5177C125.157 16.8639 125.649 17.3389 125.965 17.9428C126.28 18.5479 126.437 19.2365 126.437 20.0073V20.146H123.939V19.9558C123.939 19.5532 123.877 19.2365 123.753 19.0057C123.63 18.775 123.411 18.6081 123.095 18.505C122.78 18.4018 122.341 18.3491 121.779 18.3491C121.059 18.3491 120.562 18.4325 120.286 18.5995C120.01 18.7664 119.872 19.034 119.872 19.4034C119.872 19.6452 119.917 19.838 120.008 19.9828C120.098 20.1264 120.258 20.2393 120.488 20.3203C120.719 20.4013 121.054 20.4873 121.493 20.5793L123.5 20.977C124.288 21.1268 124.915 21.3661 125.382 21.6938C125.848 22.0228 126.184 22.4168 126.387 22.8771C126.589 23.3386 126.69 23.8504 126.69 24.4151C126.69 25.0263 126.544 25.5983 126.251 26.1347C125.959 26.6699 125.491 27.1019 124.851 27.4309C124.21 27.7598 123.349 27.9231 122.269 27.9231H122.267Z" fill="white"/>
<path d="M129.893 27.75H127.362V16.1729H129.893V27.7513V27.75ZM136.103 23.0845H128.072V20.7684H136.103V23.0845ZM137.352 27.75H134.821V16.1729H137.352V27.7513V27.75Z" fill="white"/>
<path d="M141.183 27.75H138.651V16.1729H141.183V27.7513V27.75ZM147.274 18.505H139.36V16.1716H147.274V18.505ZM147.021 23.0846H139.36V20.7684H147.021V23.0846ZM147.274 27.75H139.36V25.4167H147.274V27.75Z" fill="white"/>
<path d="M150.8 27.75H148.269V16.1729H150.8V27.7513V27.75ZM156.638 27.75H148.977V25.4167H156.638V27.75Z" fill="white"/>
<path d="M159.782 27.75H157.25V16.1729H159.782V27.7513V27.75ZM165.739 18.505H157.96V16.1716H165.739V18.505ZM165.486 23.4651H157.96V21.1489H165.486V23.4651Z" fill="white"/>
</g>
<defs>
<clipPath id="clip0_6_1513">
<rect width="166" height="40" fill="white"/>
</clipPath>
</defs>
</svg>
