<svg width="138" height="32" viewBox="0 0 138 32" fill="none" xmlns="http://www.w3.org/2000/svg">
<path d="M5.29901 24.6364V8.27273H6.3473V24.6364H5.29901ZM8.57812 13.348C8.50994 12.7429 8.22869 12.2741 7.73438 11.9418C7.24006 11.6051 6.6179 11.4368 5.8679 11.4368C5.33097 11.4368 4.86648 11.522 4.47443 11.6925C4.08239 11.8587 3.7777 12.0888 3.56037 12.3828C3.3473 12.6726 3.24077 13.0028 3.24077 13.3736C3.24077 13.6847 3.31321 13.9531 3.4581 14.179C3.60724 14.4048 3.80114 14.5945 4.03977 14.7479C4.28267 14.897 4.54261 15.0227 4.8196 15.125C5.09659 15.223 5.36293 15.304 5.61861 15.3679L6.89702 15.7003C7.31463 15.8026 7.7429 15.9411 8.18182 16.1158C8.62074 16.2905 9.0277 16.5206 9.4027 16.8061C9.7777 17.0916 10.0803 17.4453 10.3104 17.8672C10.5447 18.2891 10.6619 18.794 10.6619 19.3821C10.6619 20.1236 10.4702 20.782 10.0866 21.3572C9.70739 21.9325 9.15554 22.3864 8.43111 22.7188C7.71094 23.0511 6.83949 23.2173 5.81676 23.2173C4.83665 23.2173 3.98864 23.0618 3.27273 22.7507C2.55682 22.4396 1.99645 21.9986 1.59162 21.4276C1.18679 20.8523 0.963068 20.1705 0.920455 19.3821H2.90199C2.94034 19.8551 3.09375 20.2493 3.36222 20.5646C3.63494 20.8757 3.98224 21.108 4.40412 21.2614C4.83026 21.4105 5.29688 21.4851 5.80398 21.4851C6.36222 21.4851 6.85867 21.3977 7.29332 21.223C7.73224 21.044 8.07742 20.7969 8.32884 20.4815C8.58026 20.1619 8.70597 19.7891 8.70597 19.3629C8.70597 18.9751 8.59517 18.6577 8.37358 18.4105C8.15625 18.1634 7.86009 17.9588 7.48509 17.7969C7.11435 17.6349 6.6946 17.4922 6.22585 17.3686L4.67898 16.9467C3.63068 16.6612 2.79972 16.2415 2.18608 15.6875C1.5767 15.1335 1.27202 14.4006 1.27202 13.4886C1.27202 12.7344 1.47656 12.076 1.88565 11.5135C2.29474 10.951 2.84872 10.5142 3.54759 10.2031C4.24645 9.88778 5.0348 9.73011 5.91264 9.73011C6.79901 9.73011 7.58097 9.88565 8.25852 10.1967C8.94034 10.5078 9.47727 10.9361 9.86932 11.4815C10.2614 12.0227 10.4659 12.6449 10.483 13.348H8.57812ZM17.8368 9.90909V23H15.8553V11.8906H15.7786L12.6465 13.9361V12.044L15.9128 9.90909H17.8368ZM25.7261 23.179C24.9249 23.179 24.2047 23.0256 23.5655 22.7188C22.9306 22.4077 22.4235 21.9815 22.0442 21.4403C21.665 20.8991 21.4626 20.2812 21.437 19.5866H23.3546C23.4015 20.1491 23.6508 20.6115 24.1025 20.9737C24.5542 21.3359 25.0954 21.517 25.7261 21.517C26.2289 21.517 26.6742 21.402 27.062 21.1719C27.454 20.9375 27.7609 20.6158 27.9824 20.2067C28.2083 19.7976 28.3212 19.331 28.3212 18.8068C28.3212 18.2741 28.2062 17.799 27.9761 17.3814C27.7459 16.9638 27.4285 16.6357 27.0236 16.397C26.6231 16.1584 26.1628 16.0369 25.643 16.0327C25.2467 16.0327 24.8482 16.1009 24.4476 16.2372C24.0471 16.3736 23.7232 16.5526 23.4761 16.7741L21.6671 16.5057L22.4022 9.90909H29.5996V11.603H24.0449L23.6295 15.2656H23.7062C23.9618 15.0185 24.3006 14.8118 24.7225 14.6456C25.1486 14.4794 25.6046 14.3963 26.0904 14.3963C26.8873 14.3963 27.5968 14.5859 28.219 14.9652C28.8454 15.3445 29.3376 15.8622 29.6955 16.5185C30.0577 17.1705 30.2367 17.9205 30.2324 18.7685C30.2367 19.6165 30.0449 20.3729 29.6572 21.0376C29.2736 21.7024 28.741 22.2266 28.0592 22.6101C27.3816 22.9893 26.6039 23.179 25.7261 23.179ZM33.4043 23.1214C33.0549 23.1214 32.7545 22.9979 32.5031 22.7507C32.2516 22.4993 32.1259 22.1967 32.1259 21.843C32.1259 21.4936 32.2516 21.1953 32.5031 20.9482C32.7545 20.6967 33.0549 20.571 33.4043 20.571C33.7538 20.571 34.0542 20.6967 34.3056 20.9482C34.557 21.1953 34.6827 21.4936 34.6827 21.843C34.6827 22.0774 34.6231 22.2926 34.5038 22.4886C34.3887 22.6804 34.2353 22.8338 34.0435 22.9489C33.8518 23.0639 33.6387 23.1214 33.4043 23.1214ZM41.3543 23.179C40.5531 23.179 39.833 23.0256 39.1938 22.7188C38.5588 22.4077 38.0517 21.9815 37.6725 21.4403C37.2932 20.8991 37.0908 20.2812 37.0652 19.5866H38.9828C39.0297 20.1491 39.279 20.6115 39.7307 20.9737C40.1824 21.3359 40.7236 21.517 41.3543 21.517C41.8571 21.517 42.3024 21.402 42.6902 21.1719C43.0823 20.9375 43.3891 20.6158 43.6107 20.2067C43.8365 19.7976 43.9494 19.331 43.9494 18.8068C43.9494 18.2741 43.8344 17.799 43.6043 17.3814C43.3742 16.9638 43.0567 16.6357 42.6519 16.397C42.2513 16.1584 41.7911 16.0369 41.2712 16.0327C40.8749 16.0327 40.4764 16.1009 40.0759 16.2372C39.6753 16.3736 39.3514 16.5526 39.1043 16.7741L37.2953 16.5057L38.0304 9.90909H45.2279V11.603H39.6732L39.2577 15.2656H39.3344C39.5901 15.0185 39.9288 14.8118 40.3507 14.6456C40.7769 14.4794 41.2328 14.3963 41.7186 14.3963C42.5155 14.3963 43.225 14.5859 43.8472 14.9652C44.4736 15.3445 44.9658 15.8622 45.3237 16.5185C45.6859 17.1705 45.8649 17.9205 45.8607 18.7685C45.8649 19.6165 45.6732 20.3729 45.2854 21.0376C44.9019 21.7024 44.3692 22.2266 43.6874 22.6101C43.0098 22.9893 42.2321 23.179 41.3543 23.179ZM52.7799 23.2173C51.7699 23.2131 50.907 22.9467 50.1911 22.4183C49.4752 21.8899 48.9276 21.1207 48.5484 20.1108C48.1691 19.1009 47.9795 17.8842 47.9795 16.4609C47.9795 15.0419 48.1691 13.8295 48.5484 12.8239C48.9319 11.8182 49.4816 11.0511 50.1975 10.5227C50.9177 9.99432 51.7785 9.73011 52.7799 9.73011C53.7813 9.73011 54.64 9.99645 55.3559 10.5291C56.0718 11.0575 56.6194 11.8246 56.9986 12.8303C57.3822 13.8317 57.5739 15.0419 57.5739 16.4609C57.5739 17.8885 57.3843 19.1072 57.005 20.1172C56.6258 21.1229 56.0782 21.892 55.3623 22.4247C54.6464 22.9531 53.7856 23.2173 52.7799 23.2173ZM52.7799 21.5107C53.6662 21.5107 54.3587 21.0781 54.8573 20.2131C55.3601 19.348 55.6116 18.0973 55.6116 16.4609C55.6116 15.3743 55.4965 14.456 55.2664 13.706C55.0405 12.9517 54.7145 12.3807 54.2884 11.9929C53.8665 11.6009 53.3637 11.4048 52.7799 11.4048C51.8978 11.4048 51.2053 11.8395 50.7025 12.7088C50.1996 13.5781 49.9461 14.8288 49.9418 16.4609C49.9418 17.5518 50.0547 18.4744 50.2806 19.2287C50.5107 19.9787 50.8367 20.5476 51.2586 20.9354C51.6805 21.3189 52.1876 21.5107 52.7799 21.5107Z" fill="black" fill-opacity="0.38"/>
<path d="M0 17.1065H58.5903V18.3338H0V17.1065Z" fill="black" fill-opacity="0.38"/>
<path d="M77.2159 24.6364V8.27273H78.2642V24.6364H77.2159ZM80.7443 13.1818C80.6676 12.5341 80.3565 12.0312 79.8111 11.6733C79.2656 11.3153 78.5966 11.1364 77.804 11.1364C77.2244 11.1364 76.7173 11.2301 76.2827 11.4176C75.8523 11.6051 75.5156 11.8629 75.2727 12.1911C75.0341 12.5192 74.9148 12.892 74.9148 13.3097C74.9148 13.6591 74.9979 13.9595 75.1641 14.2109C75.3345 14.4581 75.5518 14.6648 75.8161 14.831C76.0803 14.9929 76.3572 15.1271 76.647 15.2337C76.9368 15.3359 77.2031 15.419 77.446 15.483L78.7756 15.8409C79.1165 15.9304 79.4957 16.054 79.9134 16.2116C80.3352 16.3693 80.7379 16.5845 81.1214 16.8572C81.5092 17.1257 81.8288 17.4709 82.0803 17.8928C82.3317 18.3146 82.4574 18.8324 82.4574 19.446C82.4574 20.1534 82.272 20.7926 81.9013 21.3636C81.5348 21.9347 80.9979 22.3885 80.2905 22.7251C79.5874 23.0618 78.733 23.2301 77.7273 23.2301C76.7898 23.2301 75.978 23.0788 75.2919 22.7763C74.6101 22.4737 74.0732 22.0518 73.6811 21.5107C73.2933 20.9695 73.0739 20.3409 73.0227 19.625H74.6591C74.7017 20.1193 74.8679 20.5284 75.1577 20.8523C75.4517 21.1719 75.8224 21.4105 76.2699 21.5682C76.7216 21.7216 77.2074 21.7983 77.7273 21.7983C78.3324 21.7983 78.8757 21.7003 79.3572 21.5043C79.8388 21.304 80.2202 21.027 80.5014 20.6733C80.7827 20.3153 80.9233 19.8977 80.9233 19.4205C80.9233 18.9858 80.8018 18.6321 80.5589 18.3594C80.3161 18.0866 79.9964 17.8651 79.6001 17.6946C79.2038 17.5241 78.7756 17.375 78.3153 17.2472L76.7045 16.7869C75.6818 16.4929 74.8722 16.0732 74.2756 15.5277C73.679 14.9822 73.3807 14.2685 73.3807 13.3864C73.3807 12.6534 73.5788 12.0142 73.9751 11.4688C74.3757 10.919 74.9126 10.4929 75.5859 10.1903C76.2635 9.88352 77.0199 9.73011 77.8551 9.73011C78.6989 9.73011 79.4489 9.88139 80.1051 10.1839C80.7614 10.4822 81.2813 10.8913 81.6648 11.4112C82.0526 11.9311 82.2571 12.5213 82.2784 13.1818H80.7443ZM89.4629 9.90909V23H87.8777V11.571H87.801L84.6049 13.6932V12.0824L87.8777 9.90909H89.4629ZM97.5247 23.179C96.5616 23.179 95.7413 22.9169 95.0638 22.3928C94.3862 21.8643 93.8685 21.0994 93.5105 20.098C93.1525 19.0923 92.9736 17.8778 92.9736 16.4545C92.9736 15.0398 93.1525 13.8317 93.5105 12.8303C93.8727 11.8246 94.3926 11.0575 95.0702 10.5291C95.752 9.99645 96.5702 9.73011 97.5247 9.73011C98.4792 9.73011 99.2953 9.99645 99.9729 10.5291C100.655 11.0575 101.175 11.8246 101.533 12.8303C101.895 13.8317 102.076 15.0398 102.076 16.4545C102.076 17.8778 101.897 19.0923 101.539 20.098C101.181 21.0994 100.663 21.8643 99.9856 22.3928C99.3081 22.9169 98.4878 23.179 97.5247 23.179ZM97.5247 21.7727C98.4792 21.7727 99.2207 21.3125 99.7491 20.392C100.278 19.4716 100.542 18.1591 100.542 16.4545C100.542 15.321 100.42 14.3558 100.177 13.5589C99.9388 12.7621 99.5936 12.1548 99.1419 11.7372C98.6944 11.3196 98.1554 11.1108 97.5247 11.1108C96.5787 11.1108 95.8393 11.5774 95.3067 12.5107C94.774 13.4396 94.5077 14.7543 94.5077 16.4545C94.5077 17.5881 94.627 18.5511 94.8656 19.3438C95.1042 20.1364 95.4473 20.7393 95.8947 21.1527C96.3464 21.5661 96.8898 21.7727 97.5247 21.7727ZM105.2 23.1023C104.884 23.1023 104.614 22.9893 104.388 22.7635C104.162 22.5376 104.049 22.267 104.049 21.9517C104.049 21.6364 104.162 21.3658 104.388 21.1399C104.614 20.9141 104.884 20.8011 105.2 20.8011C105.515 20.8011 105.786 20.9141 106.012 21.1399C106.237 21.3658 106.35 21.6364 106.35 21.9517C106.35 22.1605 106.297 22.3523 106.191 22.527C106.088 22.7017 105.95 22.8423 105.775 22.9489C105.605 23.0511 105.413 23.1023 105.2 23.1023ZM112.886 23.179C112.136 23.179 111.461 23.0298 110.86 22.7315C110.259 22.4332 109.777 22.0241 109.415 21.5043C109.053 20.9844 108.855 20.392 108.821 19.7273H110.355C110.414 20.3196 110.683 20.8097 111.16 21.1974C111.642 21.581 112.217 21.7727 112.886 21.7727C113.423 21.7727 113.9 21.647 114.318 21.3956C114.74 21.1442 115.07 20.799 115.309 20.3601C115.552 19.9169 115.673 19.4162 115.673 18.858C115.673 18.2869 115.547 17.7777 115.296 17.3303C115.049 16.8786 114.708 16.5227 114.273 16.2628C113.838 16.0028 113.342 15.8707 112.784 15.8665C112.383 15.8622 111.972 15.924 111.55 16.0518C111.128 16.1754 110.781 16.3352 110.508 16.5312L109.025 16.3523L109.818 9.90909H116.619V11.3153H111.147L110.687 15.1761H110.764C111.032 14.9631 111.369 14.7862 111.774 14.6456C112.179 14.505 112.601 14.4347 113.039 14.4347C113.841 14.4347 114.554 14.6264 115.181 15.0099C115.811 15.3892 116.306 15.9091 116.664 16.5696C117.026 17.2301 117.207 17.9844 117.207 18.8324C117.207 19.6676 117.02 20.4134 116.645 21.0696C116.274 21.7216 115.762 22.2372 115.11 22.6165C114.458 22.9915 113.717 23.179 112.886 23.179ZM124.043 23.179C123.08 23.179 122.26 22.9169 121.582 22.3928C120.905 21.8643 120.387 21.0994 120.029 20.098C119.671 19.0923 119.492 17.8778 119.492 16.4545C119.492 15.0398 119.671 13.8317 120.029 12.8303C120.391 11.8246 120.911 11.0575 121.589 10.5291C122.27 9.99645 123.089 9.73011 124.043 9.73011C124.998 9.73011 125.814 9.99645 126.491 10.5291C127.173 11.0575 127.693 11.8246 128.051 12.8303C128.413 13.8317 128.594 15.0398 128.594 16.4545C128.594 17.8778 128.415 19.0923 128.057 20.098C127.699 21.0994 127.182 21.8643 126.504 22.3928C125.827 22.9169 125.006 23.179 124.043 23.179ZM124.043 21.7727C124.998 21.7727 125.739 21.3125 126.268 20.392C126.796 19.4716 127.06 18.1591 127.06 16.4545C127.06 15.321 126.939 14.3558 126.696 13.5589C126.457 12.7621 126.112 12.1548 125.66 11.7372C125.213 11.3196 124.674 11.1108 124.043 11.1108C123.097 11.1108 122.358 11.5774 121.825 12.5107C121.292 13.4396 121.026 14.7543 121.026 16.4545C121.026 17.5881 121.145 18.5511 121.384 19.3438C121.623 20.1364 121.966 20.7393 122.413 21.1527C122.865 21.5661 123.408 21.7727 124.043 21.7727Z" fill="black" fill-opacity="0.87"/>
</svg>
