<svg width="66" height="32" viewBox="0 0 66 32" fill="none" xmlns="http://www.w3.org/2000/svg">
<path d="M5.21591 24.6364V8.27273H6.2642V24.6364H5.21591ZM8.74432 13.1818C8.66761 12.5341 8.35653 12.0312 7.81108 11.6733C7.26563 11.3153 6.59659 11.1364 5.80398 11.1364C5.22443 11.1364 4.71733 11.2301 4.28267 11.4176C3.85227 11.6051 3.51563 11.8629 3.27273 12.1911C3.03409 12.5192 2.91477 12.892 2.91477 13.3097C2.91477 13.6591 2.99787 13.9595 3.16406 14.2109C3.33452 14.4581 3.55185 14.6648 3.81605 14.831C4.08026 14.9929 4.35724 15.1271 4.64702 15.2337C4.93679 15.3359 5.20312 15.419 5.44602 15.483L6.77557 15.8409C7.11648 15.9304 7.49574 16.054 7.91335 16.2116C8.33523 16.3693 8.73793 16.5845 9.12145 16.8572C9.50923 17.1257 9.82884 17.4709 10.0803 17.8928C10.3317 18.3146 10.4574 18.8324 10.4574 19.446C10.4574 20.1534 10.272 20.7926 9.90128 21.3636C9.5348 21.9347 8.99787 22.3885 8.29048 22.7251C7.58736 23.0618 6.73295 23.2301 5.72727 23.2301C4.78977 23.2301 3.97798 23.0788 3.2919 22.7763C2.61009 22.4737 2.07315 22.0518 1.68111 21.5107C1.29332 20.9695 1.07386 20.3409 1.02273 19.625H2.65909C2.7017 20.1193 2.8679 20.5284 3.15767 20.8523C3.4517 21.1719 3.82244 21.4105 4.26989 21.5682C4.72159 21.7216 5.20739 21.7983 5.72727 21.7983C6.33239 21.7983 6.87571 21.7003 7.35724 21.5043C7.83878 21.304 8.22017 21.027 8.50142 20.6733C8.78267 20.3153 8.9233 19.8977 8.9233 19.4205C8.9233 18.9858 8.80185 18.6321 8.55895 18.3594C8.31605 18.0866 7.99645 17.8651 7.60014 17.6946C7.20384 17.5241 6.77557 17.375 6.31534 17.2472L4.70455 16.7869C3.68182 16.4929 2.87216 16.0732 2.27557 15.5277C1.67898 14.9822 1.38068 14.2685 1.38068 13.3864C1.38068 12.6534 1.57884 12.0142 1.97514 11.4688C2.37571 10.919 2.91264 10.4929 3.58594 10.1903C4.26349 9.88352 5.01989 9.73011 5.85511 9.73011C6.69886 9.73011 7.44886 9.88139 8.10511 10.1839C8.76136 10.4822 9.28125 10.8913 9.66477 11.4112C10.0526 11.9311 10.2571 12.5213 10.2784 13.1818H8.74432ZM12.8606 23V21.8494L17.1817 17.1193C17.6888 16.5653 18.1064 16.0838 18.4345 15.6747C18.7626 15.2614 19.0055 14.8736 19.1632 14.5114C19.3251 14.1449 19.4061 13.7614 19.4061 13.3608C19.4061 12.9006 19.2953 12.5021 19.0737 12.1655C18.8564 11.8288 18.5581 11.5689 18.1788 11.3857C17.7996 11.2024 17.3734 11.1108 16.9004 11.1108C16.3976 11.1108 15.9586 11.2152 15.5836 11.424C15.2129 11.6286 14.9253 11.9162 14.7207 12.2869C14.5204 12.6577 14.4203 13.0923 14.4203 13.5909H12.9118C12.9118 12.8239 13.0886 12.1506 13.4423 11.571C13.796 10.9915 14.2775 10.5398 14.8869 10.2159C15.5005 9.89204 16.1888 9.73011 16.9515 9.73011C17.7186 9.73011 18.3983 9.89204 18.9906 10.2159C19.5829 10.5398 20.0474 10.9766 20.3841 11.5263C20.7207 12.076 20.889 12.6875 20.889 13.3608C20.889 13.8423 20.8017 14.3132 20.627 14.7734C20.4565 15.2294 20.1582 15.7386 19.7321 16.3011C19.3102 16.8594 18.7243 17.5412 17.9743 18.3466L15.0339 21.4915V21.5938H21.1192V23H12.8606ZM23.7861 23V21.8494L28.1071 17.1193C28.6142 16.5653 29.0318 16.0838 29.3599 15.6747C29.6881 15.2614 29.931 14.8736 30.0886 14.5114C30.2506 14.1449 30.3315 13.7614 30.3315 13.3608C30.3315 12.9006 30.2207 12.5021 29.9991 12.1655C29.7818 11.8288 29.4835 11.5689 29.1042 11.3857C28.725 11.2024 28.2989 11.1108 27.8258 11.1108C27.323 11.1108 26.8841 11.2152 26.5091 11.424C26.1383 11.6286 25.8507 11.9162 25.6462 12.2869C25.4459 12.6577 25.3457 13.0923 25.3457 13.5909H23.8372C23.8372 12.8239 24.0141 12.1506 24.3677 11.571C24.7214 10.9915 25.203 10.5398 25.8123 10.2159C26.426 9.89204 27.1142 9.73011 27.877 9.73011C28.644 9.73011 29.3237 9.89204 29.916 10.2159C30.5084 10.5398 30.9729 10.9766 31.3095 11.5263C31.6462 12.076 31.8145 12.6875 31.8145 13.3608C31.8145 13.8423 31.7271 14.3132 31.5524 14.7734C31.3819 15.2294 31.0837 15.7386 30.6575 16.3011C30.2356 16.8594 29.6497 17.5412 28.8997 18.3466L25.9594 21.4915V21.5938H32.0446V23H23.7861ZM35.8365 23.1023C35.5212 23.1023 35.2506 22.9893 35.0247 22.7635C34.7989 22.5376 34.6859 22.267 34.6859 21.9517C34.6859 21.6364 34.7989 21.3658 35.0247 21.1399C35.2506 20.9141 35.5212 20.8011 35.8365 20.8011C36.1518 20.8011 36.4224 20.9141 36.6483 21.1399C36.8741 21.3658 36.9871 21.6364 36.9871 21.9517C36.9871 22.1605 36.9338 22.3523 36.8273 22.527C36.725 22.7017 36.5865 22.8423 36.4118 22.9489C36.2413 23.0511 36.0496 23.1023 35.8365 23.1023ZM43.5228 23.179C42.7728 23.179 42.0973 23.0298 41.4965 22.7315C40.8956 22.4332 40.4141 22.0241 40.0519 21.5043C39.6897 20.9844 39.4915 20.392 39.4574 19.7273H40.9915C41.0512 20.3196 41.3196 20.8097 41.7969 21.1974C42.2785 21.581 42.8537 21.7727 43.5228 21.7727C44.0597 21.7727 44.537 21.647 44.9546 21.3956C45.3765 21.1442 45.7067 20.799 45.9454 20.3601C46.1883 19.9169 46.3097 19.4162 46.3097 18.858C46.3097 18.2869 46.184 17.7777 45.9326 17.3303C45.6854 16.8786 45.3445 16.5227 44.9098 16.2628C44.4752 16.0028 43.9787 15.8707 43.4205 15.8665C43.0199 15.8622 42.6087 15.924 42.1868 16.0518C41.765 16.1754 41.4177 16.3352 41.1449 16.5312L39.662 16.3523L40.4546 9.90909H47.2557V11.3153H41.7841L41.3239 15.1761H41.4006C41.6691 14.9631 42.0057 14.7862 42.4106 14.6456C42.8154 14.505 43.2373 14.4347 43.6762 14.4347C44.4773 14.4347 45.1911 14.6264 45.8175 15.0099C46.4482 15.3892 46.9425 15.9091 47.3005 16.5696C47.6627 17.2301 47.8438 17.9844 47.8438 18.8324C47.8438 19.6676 47.6563 20.4134 47.2813 21.0696C46.9106 21.7216 46.3992 22.2372 45.7472 22.6165C45.0952 22.9915 44.3537 23.179 43.5228 23.179ZM54.6799 23.179C53.7169 23.179 52.8965 22.9169 52.219 22.3928C51.5414 21.8643 51.0237 21.0994 50.6657 20.098C50.3078 19.0923 50.1288 17.8778 50.1288 16.4545C50.1288 15.0398 50.3078 13.8317 50.6657 12.8303C51.0279 11.8246 51.5478 11.0575 52.2254 10.5291C52.9072 9.99645 53.7254 9.73011 54.6799 9.73011C55.6345 9.73011 56.4505 9.99645 57.1281 10.5291C57.8099 11.0575 58.3298 11.8246 58.6877 12.8303C59.0499 13.8317 59.2311 15.0398 59.2311 16.4545C59.2311 17.8778 59.0521 19.0923 58.6941 20.098C58.3362 21.0994 57.8184 21.8643 57.1409 22.3928C56.4633 22.9169 55.643 23.179 54.6799 23.179ZM54.6799 21.7727C55.6345 21.7727 56.3759 21.3125 56.9044 20.392C57.4328 19.4716 57.697 18.1591 57.697 16.4545C57.697 15.321 57.5755 14.3558 57.3326 13.5589C57.094 12.7621 56.7488 12.1548 56.2971 11.7372C55.8497 11.3196 55.3106 11.1108 54.6799 11.1108C53.7339 11.1108 52.9946 11.5774 52.4619 12.5107C51.9292 13.4396 51.6629 14.7543 51.6629 16.4545C51.6629 17.5881 51.7822 18.5511 52.0208 19.3438C52.2595 20.1364 52.6025 20.7393 53.0499 21.1527C53.5017 21.5661 54.045 21.7727 54.6799 21.7727Z" fill="black" fill-opacity="0.87"/>
</svg>
