<svg width="66" height="32" viewBox="0 0 66 32" fill="none" xmlns="http://www.w3.org/2000/svg">
<path d="M5.21591 24.6364V8.27273H6.2642V24.6364H5.21591ZM8.74432 13.1818C8.66761 12.5341 8.35653 12.0312 7.81108 11.6733C7.26563 11.3153 6.59659 11.1364 5.80398 11.1364C5.22443 11.1364 4.71733 11.2301 4.28267 11.4176C3.85227 11.6051 3.51563 11.8629 3.27273 12.1911C3.03409 12.5192 2.91477 12.892 2.91477 13.3097C2.91477 13.6591 2.99787 13.9595 3.16406 14.2109C3.33452 14.4581 3.55185 14.6648 3.81605 14.831C4.08026 14.9929 4.35724 15.1271 4.64702 15.2337C4.93679 15.3359 5.20312 15.419 5.44602 15.483L6.77557 15.8409C7.11648 15.9304 7.49574 16.054 7.91335 16.2116C8.33523 16.3693 8.73793 16.5845 9.12145 16.8572C9.50923 17.1257 9.82884 17.4709 10.0803 17.8928C10.3317 18.3146 10.4574 18.8324 10.4574 19.446C10.4574 20.1534 10.272 20.7926 9.90128 21.3636C9.5348 21.9347 8.99787 22.3885 8.29048 22.7251C7.58736 23.0618 6.73295 23.2301 5.72727 23.2301C4.78977 23.2301 3.97798 23.0788 3.2919 22.7763C2.61009 22.4737 2.07315 22.0518 1.68111 21.5107C1.29332 20.9695 1.07386 20.3409 1.02273 19.625H2.65909C2.7017 20.1193 2.8679 20.5284 3.15767 20.8523C3.4517 21.1719 3.82244 21.4105 4.26989 21.5682C4.72159 21.7216 5.20739 21.7983 5.72727 21.7983C6.33239 21.7983 6.87571 21.7003 7.35724 21.5043C7.83878 21.304 8.22017 21.027 8.50142 20.6733C8.78267 20.3153 8.9233 19.8977 8.9233 19.4205C8.9233 18.9858 8.80185 18.6321 8.55895 18.3594C8.31605 18.0866 7.99645 17.8651 7.60014 17.6946C7.20384 17.5241 6.77557 17.375 6.31534 17.2472L4.70455 16.7869C3.68182 16.4929 2.87216 16.0732 2.27557 15.5277C1.67898 14.9822 1.38068 14.2685 1.38068 13.3864C1.38068 12.6534 1.57884 12.0142 1.97514 11.4688C2.37571 10.919 2.91264 10.4929 3.58594 10.1903C4.26349 9.88352 5.01989 9.73011 5.85511 9.73011C6.69886 9.73011 7.44886 9.88139 8.10511 10.1839C8.76136 10.4822 9.28125 10.8913 9.66477 11.4112C10.0526 11.9311 10.2571 12.5213 10.2784 13.1818H8.74432ZM17.4629 9.90909V23H15.8777V11.571H15.801L12.6049 13.6932V12.0824L15.8777 9.90909H17.4629ZM25.5247 23.179C24.5616 23.179 23.7413 22.9169 23.0638 22.3928C22.3862 21.8643 21.8685 21.0994 21.5105 20.098C21.1525 19.0923 20.9736 17.8778 20.9736 16.4545C20.9736 15.0398 21.1525 13.8317 21.5105 12.8303C21.8727 11.8246 22.3926 11.0575 23.0702 10.5291C23.752 9.99645 24.5702 9.73011 25.5247 9.73011C26.4792 9.73011 27.2953 9.99645 27.9729 10.5291C28.6547 11.0575 29.1746 11.8246 29.5325 12.8303C29.8947 13.8317 30.0758 15.0398 30.0758 16.4545C30.0758 17.8778 29.8969 19.0923 29.5389 20.098C29.181 21.0994 28.6632 21.8643 27.9856 22.3928C27.3081 22.9169 26.4878 23.179 25.5247 23.179ZM25.5247 21.7727C26.4792 21.7727 27.2207 21.3125 27.7491 20.392C28.2775 19.4716 28.5417 18.1591 28.5417 16.4545C28.5417 15.321 28.4203 14.3558 28.1774 13.5589C27.9388 12.7621 27.5936 12.1548 27.1419 11.7372C26.6944 11.3196 26.1554 11.1108 25.5247 11.1108C24.5787 11.1108 23.8393 11.5774 23.3067 12.5107C22.774 13.4396 22.5077 14.7543 22.5077 16.4545C22.5077 17.5881 22.627 18.5511 22.8656 19.3438C23.1042 20.1364 23.4473 20.7393 23.8947 21.1527C24.3464 21.5661 24.8898 21.7727 25.5247 21.7727ZM33.1998 23.1023C32.8844 23.1023 32.6138 22.9893 32.388 22.7635C32.1621 22.5376 32.0492 22.267 32.0492 21.9517C32.0492 21.6364 32.1621 21.3658 32.388 21.1399C32.6138 20.9141 32.8844 20.8011 33.1998 20.8011C33.5151 20.8011 33.7857 20.9141 34.0116 21.1399C34.2374 21.3658 34.3504 21.6364 34.3504 21.9517C34.3504 22.1605 34.2971 22.3523 34.1906 22.527C34.0883 22.7017 33.9498 22.8423 33.7751 22.9489C33.6046 23.0511 33.4129 23.1023 33.1998 23.1023ZM40.8861 23.179C40.1361 23.179 39.4606 23.0298 38.8598 22.7315C38.2589 22.4332 37.7774 22.0241 37.4152 21.5043C37.053 20.9844 36.8548 20.392 36.8207 19.7273H38.3548C38.4145 20.3196 38.6829 20.8097 39.1602 21.1974C39.6417 21.581 40.217 21.7727 40.8861 21.7727C41.423 21.7727 41.9003 21.647 42.3179 21.3956C42.7397 21.1442 43.07 20.799 43.3086 20.3601C43.5515 19.9169 43.673 19.4162 43.673 18.858C43.673 18.2869 43.5473 17.7777 43.2959 17.3303C43.0487 16.8786 42.7078 16.5227 42.2731 16.2628C41.8385 16.0028 41.342 15.8707 40.7838 15.8665C40.3832 15.8622 39.972 15.924 39.5501 16.0518C39.1282 16.1754 38.7809 16.3352 38.5082 16.5312L37.0253 16.3523L37.8179 9.90909H44.619V11.3153H39.1474L38.6872 15.1761H38.7639C39.0324 14.9631 39.369 14.7862 39.7738 14.6456C40.1787 14.505 40.6005 14.4347 41.0395 14.4347C41.8406 14.4347 42.5544 14.6264 43.1808 15.0099C43.8115 15.3892 44.3058 15.9091 44.6638 16.5696C45.026 17.2301 45.2071 17.9844 45.2071 18.8324C45.2071 19.6676 45.0196 20.4134 44.6446 21.0696C44.2738 21.7216 43.7625 22.2372 43.1105 22.6165C42.4585 22.9915 41.717 23.179 40.8861 23.179ZM52.0432 23.179C51.0801 23.179 50.2598 22.9169 49.5823 22.3928C48.9047 21.8643 48.387 21.0994 48.029 20.098C47.671 19.0923 47.4921 17.8778 47.4921 16.4545C47.4921 15.0398 47.671 13.8317 48.029 12.8303C48.3912 11.8246 48.9111 11.0575 49.5887 10.5291C50.2705 9.99645 51.0887 9.73011 52.0432 9.73011C52.9977 9.73011 53.8138 9.99645 54.4914 10.5291C55.1732 11.0575 55.6931 11.8246 56.051 12.8303C56.4132 13.8317 56.5943 15.0398 56.5943 16.4545C56.5943 17.8778 56.4154 19.0923 56.0574 20.098C55.6995 21.0994 55.1817 21.8643 54.5041 22.3928C53.8266 22.9169 53.0063 23.179 52.0432 23.179ZM52.0432 21.7727C52.9977 21.7727 53.7392 21.3125 54.2676 20.392C54.796 19.4716 55.0602 18.1591 55.0602 16.4545C55.0602 15.321 54.9388 14.3558 54.6959 13.5589C54.4573 12.7621 54.1121 12.1548 53.6604 11.7372C53.2129 11.3196 52.6739 11.1108 52.0432 11.1108C51.0972 11.1108 50.3578 11.5774 49.8252 12.5107C49.2925 13.4396 49.0262 14.7543 49.0262 16.4545C49.0262 17.5881 49.1455 18.5511 49.3841 19.3438C49.6227 20.1364 49.9658 20.7393 50.4132 21.1527C50.8649 21.5661 51.4083 21.7727 52.0432 21.7727Z" fill="black" fill-opacity="0.87"/>
</svg>
